<svg width="790" height="790" viewBox="0 0 790 790" fill="none" xmlns="http://www.w3.org/2000/svg">
<g opacity="0.5">
<rect x="600" y="150" width="40" height="40" rx="20" fill="#F5F5F5"/>
<rect x="600" y="200" width="40" height="40" fill="#F6F6F6"/>
<rect x="600" y="350" width="40" height="40" fill="#FEFEFE"/>
<rect x="600" y="400" width="40" height="40" fill="#EAEAEA"/>
<rect x="600" y="450" width="40" height="40" rx="20" fill="#EFEFEF"/>
<rect x="600" y="500" width="40" height="40" fill="#DEDEDE"/>
<rect x="600" y="550" width="40" height="40" fill="#E4E4E4"/>
<rect x="600" y="600" width="40" height="40" fill="#FCFCFC"/>
<rect x="600" y="650" width="40" height="40" fill="#ECECEC"/>
<rect x="600" y="700" width="40" height="40" fill="#E3E3E3"/>
<rect x="600" y="750" width="40" height="40" fill="#E1E1E1"/>
<rect x="200" y="450" width="40" height="40" fill="#EAEAEA"/>
<rect x="200" y="550" width="40" height="40" fill="#E4E4E4"/>
<rect x="200" y="600" width="40" height="40" fill="#E5E5E5"/>
<rect x="200" y="650" width="40" height="40" fill="#EFEFEF"/>
<rect x="200" y="700" width="40" height="40" fill="#E1E1E1"/>
<rect x="200" y="750" width="40" height="40" fill="#F8F8F8"/>
<rect x="400" y="350" width="40" height="40" fill="#F4F4F4"/>
<rect x="400" y="400" width="40" height="40" fill="#E9E9E9"/>
<rect x="400" y="450" width="40" height="40" fill="#E7E7E7"/>
<rect x="400" y="500" width="40" height="40" fill="#EBEBEB"/>
<rect x="400" y="550" width="40" height="40" fill="#DFDFDF"/>
<path d="M440 700H400V740L440 700Z" fill="#FDFDFD"/>
<rect x="400" y="750" width="40" height="40" fill="#EDEDED"/>
<rect y="650" width="40" height="40" rx="20" fill="#F9F9F9"/>
<rect y="750" width="40" height="40" fill="#E0E0E0"/>
<rect x="700" y="50" width="40" height="40" fill="#F7F7F7"/>
<rect x="700" y="200" width="40" height="40" fill="#FAFAFA"/>
<rect x="700" y="250" width="40" height="40" fill="#EEEEEE"/>
<rect x="700" y="300" width="40" height="40" fill="#DDDDDD"/>
<rect x="700" y="350" width="40" height="40" fill="#E8E8E8"/>
<rect x="700" y="400" width="40" height="40" fill="#F7F7F7"/>
<rect x="700" y="450" width="40" height="40" fill="#F4F4F4"/>
<rect x="700" y="500" width="40" height="40" fill="#F1F1F1"/>
<rect x="700" y="550" width="40" height="40" fill="#F4F4F4"/>
<rect x="700" y="600" width="40" height="40" fill="#E5E5E5"/>
<rect x="700" y="650" width="40" height="40" fill="#FAFAFA"/>
<rect x="650" y="700" width="90" height="90" rx="45" fill="#E8E8E8"/>
<rect x="300" y="450" width="90" height="90" rx="45" fill="#EDEDED"/>
<rect x="300" y="550" width="40" height="40" fill="#EDEDED"/>
<rect x="300" y="600" width="40" height="40" fill="#FAFAFA"/>
<rect x="300" y="650" width="40" height="40" fill="#F4F4F4"/>
<rect x="300" y="700" width="40" height="40" fill="#F6F6F6"/>
<rect x="300" y="750" width="40" height="40" fill="#FDFDFD"/>
<rect x="500" y="150" width="40" height="40" fill="#F3F3F3"/>
<rect x="500" y="250" width="40" height="40" fill="#DFDFDF"/>
<rect x="500" y="300" width="40" height="40" fill="#F0F0F0"/>
<path d="M540 390V350L500 390H540Z" fill="#EFEFEF"/>
<rect x="500" y="400" width="40" height="40" fill="#E9E9E9"/>
<rect x="500" y="450" width="90" height="90" fill="#F0F0F0"/>
<rect x="500" y="550" width="40" height="40" fill="#E2E2E2"/>
<rect x="500" y="600" width="40" height="40" fill="#E6E6E6"/>
<rect x="500" y="650" width="40" height="40" fill="#E5E5E5"/>
<rect x="500" y="700" width="40" height="40" fill="#E4E4E4"/>
<rect x="500" y="750" width="40" height="40" fill="#E8E8E8"/>
<path d="M140 550H100L140 590V550Z" fill="#DFDFDF"/>
<rect x="100" y="650" width="40" height="40" fill="#EDEDED"/>
<rect x="650" width="40" height="40" fill="#F3F3F3"/>
<path d="M740 100H650L740 190V100Z" fill="#ECECEC"/>
<rect x="650" y="200" width="40" height="40" fill="#F5F5F5"/>
<path d="M690 250H600L690 340V250Z" fill="#FCFCFC"/>
<path d="M650 390H690L650 350V390Z" fill="#F0F0F0"/>
<rect x="650" y="400" width="40" height="40" fill="#E7E7E7"/>
<rect x="650" y="450" width="40" height="40" fill="#F0F0F0"/>
<rect x="650" y="500" width="40" height="40" fill="#EEEEEE"/>
<rect x="650" y="550" width="40" height="40" fill="#FDFDFD"/>
<rect x="650" y="600" width="40" height="40" fill="#FDFDFD"/>
<rect x="650" y="650" width="40" height="40" fill="#FDFDFD"/>
<rect x="250" y="500" width="40" height="40" fill="#E3E3E3"/>
<rect x="250" y="550" width="40" height="40" fill="#E4E4E4"/>
<rect x="250" y="600" width="40" height="40" fill="#F8F8F8"/>
<rect x="250" y="650" width="40" height="40" fill="#EBEBEB"/>
<rect x="250" y="700" width="40" height="40" fill="#E9E9E9"/>
<rect x="250" y="750" width="40" height="40" fill="white"/>
<rect x="450" y="300" width="40" height="40" fill="#F0F0F0"/>
<rect x="450" y="350" width="40" height="40" fill="#EBEBEB"/>
<rect x="450" y="400" width="40" height="40" fill="#E4E4E4"/>
<rect x="450" y="450" width="40" height="40" fill="white"/>
<rect x="450" y="500" width="40" height="40" fill="#F8F8F8"/>
<rect x="450" y="550" width="40" height="40" fill="#FBFBFB"/>
<rect x="400" y="600" width="90" height="90" rx="45" fill="#F0F0F0"/>
<rect x="450" y="700" width="40" height="40" fill="#E4E4E4"/>
<rect x="450" y="750" width="40" height="40" fill="#E9E9E9"/>
<path d="M140 700H50V790L140 700Z" fill="#E0E0E0"/>
<rect x="750" width="40" height="40" rx="20" fill="#EEEEEE"/>
<rect x="750" y="50" width="40" height="40" fill="#F0F0F0"/>
<rect x="750" y="100" width="40" height="40" fill="#FBFBFB"/>
<rect x="750" y="150" width="40" height="40" fill="#F5F5F5"/>
<rect x="750" y="200" width="40" height="40" fill="#F6F6F6"/>
<rect x="750" y="250" width="40" height="40" fill="#EEEEEE"/>
<rect x="750" y="300" width="40" height="40" fill="#EEEEEE"/>
<rect x="750" y="350" width="40" height="40" fill="#F3F3F3"/>
<rect x="750" y="400" width="40" height="40" fill="#ECECEC"/>
<rect x="750" y="450" width="40" height="40" fill="#E5E5E5"/>
<rect x="750" y="500" width="40" height="40" fill="#FEFEFE"/>
<rect x="750" y="550" width="40" height="40" fill="#DEDEDE"/>
<rect x="750" y="600" width="40" height="40" fill="#F2F2F2"/>
<rect x="750" y="650" width="40" height="40" fill="#E4E4E4"/>
<rect x="750" y="700" width="40" height="40" rx="20" fill="#ECECEC"/>
<rect x="750" y="750" width="40" height="40" fill="#EFEFEF"/>
<rect x="350" y="300" width="40" height="40" fill="#F2F2F2"/>
<rect x="350" y="400" width="40" height="40" fill="#FEFEFE"/>
<path d="M350 590H390L350 550V590Z" fill="#E3E3E3"/>
<rect x="350" y="600" width="40" height="40" fill="#E9E9E9"/>
<rect x="350" y="650" width="40" height="40" fill="#F1F1F1"/>
<rect x="350" y="700" width="40" height="40" fill="#EDEDED"/>
<rect x="350" y="750" width="40" height="40" fill="#E8E8E8"/>
<rect x="550" y="200" width="40" height="40" fill="#E1E1E1"/>
<rect x="550" y="250" width="40" height="40" fill="#E4E4E4"/>
<rect x="550" y="300" width="40" height="40" fill="#EEEEEE"/>
<rect x="550" y="350" width="40" height="40" fill="#FBFBFB"/>
<rect x="550" y="400" width="40" height="40" fill="#DCDCDC"/>
<rect x="550" y="550" width="40" height="40" rx="20" fill="#FBFBFB"/>
<rect x="550" y="600" width="40" height="40" fill="#E1E1E1"/>
<rect x="550" y="650" width="40" height="40" fill="#ECECEC"/>
<rect x="550" y="700" width="40" height="40" fill="white"/>
<rect x="550" y="750" width="40" height="40" fill="#F6F6F6"/>
<rect x="150" y="600" width="40" height="40" fill="#FBFBFB"/>
<rect x="150" y="650" width="40" height="40" fill="#F3F3F3"/>
<rect x="150" y="700" width="40" height="40" fill="#F4F4F4"/>
<rect x="150" y="750" width="40" height="40" fill="#F0F0F0"/>
</g>
</svg>
